<svg viewBox="0 0 18.56 16.99" xmlns="http://www.w3.org/2000/svg">
<path d="M15.5079 1.9954c-.486-.4625-.7258-.533-.5265-.1948.1223.2078.2248.4208.3066.6399.2199.5901.3301 1.1397.3301 1.65 0 .8452-.1102 1.5402-.3301 2.0858-.2207.5455-.4929 1.0121-.8185 1.3989-.326.3876-.6861.7177-1.0822.9902-.3961.2734-.7707.5455-1.1223.8185-.3523.273-.6646.5852-.9376.9372-.143.1843-.258.3929-.3455.6253-.1393.3706-.1697.9194-.1697 1.1964s-.7978.5014-1.7816.5014-1.7816-.2661-1.7816-.5941v-.5941c.0531-.7561.1976-1.39.4354-1.9007.2377-.5103.5148-.9461.8315-1.3069.3171-.36.6508-.6731 1.0032-.9372.3515-.2641.6776-.5277.9769-.7922.2993-.2641.5415-.5544.7262-.8712.1847-.3167.2677-.7124.2507-1.1879 0-.8096-.1976-1.4078-.5937-1.7954-.3961-.3872-.9469-.5808-1.65-.5808-.4755 0-.8845.0923-1.2284.277-.343.1847-.6245.4313-.8444.7395-.2207.3078-.3831.6687-.4884 1.0822-.0543.2126-.0948.4334-.1211.6622-.0425.3694-.906.6715-1.9776.6715s-1.944-.603-1.8124-1.3292c.0814-.4491.2017-.8772.3605-1.2843.3074-.7922.7391-1.4787 1.2932-2.0594.019-.0203.0397-.0389.0599-.0575.034-.0308-.4139.2134-.9424.6269C1.3806 3.0926 0 5.7065 0 8.6443c0 4.0557 2.6309 7.4953 6.2787 8.7095.6367.2118.9137.0579.7501-.3378-.0964-.2333-.1499-.488-.1499-.7557 0-1.1227.9279-2.0327 2.072-2.0327s2.072.91 2.072 2.0327c0 .29-.0628.565-.1758.8136-.1912.422.0514.6116.6998.439 3.9224-1.0437 6.8129-4.6178 6.8129-8.8691C18.3611 6.0272 17.2652 3.6673 15.5079 1.9954z"/>
</svg>